<?xml version="1.0" encoding="utf-8"?>
<!-- Generator: Adobe Illustrator 27.1.1, SVG Export Plug-In . SVG Version: 6.00 Build 0)  -->
<svg version="1.1" id="Layer_2" xmlns="http://www.w3.org/2000/svg" xmlns:xlink="http://www.w3.org/1999/xlink" x="0px" y="0px"
	 viewBox="0 0 52.8 20.3" style="enable-background:new 0 0 52.8 20.3;" xml:space="preserve">
<style type="text/css">
	.st0{fill:#FFFFFF;}
	.st1{fill:#FFD800;}
</style>
<g>
	<path class="st0" d="M3,8.2H0.7L0.6,8.1C0.5,8,0.4,7.8,0.5,7.7l0.3-0.4V3.8c0,0-0.1-0.2-0.3-0.5C0.4,3.2,0.5,2.9,0.7,2.9
		c0,0,0,0,0,0c0.1,0,0.1,0,0.2,0h0.3l1-0.6l0,0C2.4,2,2.7,2.1,2.9,2.3l0,0c0,0,0,0,0,0.1v0.4c0,0,0.8-0.9,1.7-0.9s1.5,0.6,1.7,1
		c0,0,0.9-1,2-1s1.6,0.8,1.7,1.3s0.2,1.9,0.2,2.2s0,2.1,0,2.1l0.2,0.2c0.2,0.1,0.1,0.4,0,0.5l-0.1,0H8.1L8,8.2
		C7.8,8.1,7.7,7.8,7.9,7.6l0.2-0.3l0-3.7c0,0-0.1-0.6-0.7-0.7c-0.5,0-0.8,0.6-0.8,0.6c0,0.1,0,3.7,0,3.7l0.2,0.2
		c0.2,0.2,0.1,0.4,0,0.6l0,0H4.3l0,0C4.1,8.1,4.1,7.8,4.2,7.6l0.3-0.3l0-3.7c0,0-0.2-0.6-0.7-0.6c-0.5,0-0.8,0.6-0.8,0.6v3.7
		l0.3,0.4C3.3,7.8,3.2,8,3.1,8.1L3,8.2z"/>
	<path class="st0" d="M16.7,8.2c0,0-1.1,0-1.3-1v-3c0,0-0.4,0.5-0.8,0.8c-0.4,0.3-0.8,0.7-0.8,1.4s0.4,1.1,0.6,1.1s0.3-0.2,0.4-0.2
		s0.2,0.1,0.1,0.3c-0.1,0.2-0.7,0.8-1.5,0.7s-1.8-0.5-1.7-1.6s1.1-1.8,1.6-2c0.5-0.2,1.9-0.9,1.9-1.5s-0.7-0.8-0.9-0.8
		c-0.2,0-0.9,0.1-0.9,0.8s-0.3,0.8-0.7,0.8s-0.6-0.2-0.6-0.6c0-0.4,0.6-1.5,2.2-1.5s2.9,0.9,3.1,2.3v3c0,0,0.1,0.1,0.3,0.1
		c0.1-0.1,0.3,0,0.3,0c0,0.1,0.1,0.3,0,0.4S17.6,8.2,16.7,8.2z"/>
	<path class="st0" d="M23.6,8.2h-4.7c0,0-0.4-0.1-0.4-0.4c0-0.3,0.6-1.1,0.7-1.3c0.1-0.2,2.5-3.8,2.5-3.8h-1.2c0,0-0.5,0.5-0.8,0.8
		S19.2,4.2,19,4.2s-0.4-0.1-0.4-0.3c0-0.2,0.4-0.9,0.5-1.2c0.1-0.3,0.3-0.6,0.3-0.6h4.4c0,0,0.4,0.1,0.4,0.4s-0.3,0.6-0.5,0.9
		S22.1,5.8,22,6.1c-0.1,0.2-1,1.4-1,1.4l-0.1,0.2l1.4,0c0,0,0.4-0.2,0.7-0.6c0.4-0.4,0.6-0.9,1-0.8C24.5,6.2,23.5,8.2,23.6,8.2"/>
	<path class="st1" d="M37.5,11.9c-1.9,0-3.5,1.4-3.5,3.2c0,1.8,1.5,3.2,3.5,3.2c1.9,0,3.5-1.4,3.5-3.2C41,13.4,39.4,11.9,37.5,11.9z
		 M38.2,17.8c-0.6,0.2-1.5-0.9-1.8-2.3c-0.4-1.4-0.1-2.7,0.5-2.9c0.6-0.2,1.5,0.9,1.8,2.3C39.1,16.3,38.9,17.6,38.2,17.8z"/>
	<path class="st0" d="M29,1.9c-1.9,0-3.5,1.4-3.5,3.2c0,1.8,1.5,3.2,3.5,3.2c1.9,0,3.5-1.4,3.5-3.2C32.4,3.4,30.9,1.9,29,1.9z
		 M29.7,7.7c-0.6,0.2-1.5-0.9-1.8-2.3c-0.4-1.4-0.1-2.7,0.5-2.9c0.6-0.2,1.5,0.9,1.8,2.3C30.5,6.3,30.3,7.6,29.7,7.7z"/>
	<path class="st1" d="M22.8,9.1c-2.6,0-4.7,2.1-4.7,4.6c0,2.6,2.1,4.6,4.7,4.6c2.6,0,4.7-2.1,4.7-4.6C27.5,11.2,25.4,9.1,22.8,9.1z
		 M23.8,17.5c-0.9,0.2-2-1.2-2.5-3.3c-0.5-2-0.2-3.9,0.7-4.1c0.9-0.2,2,1.2,2.5,3.3C25,15.4,24.7,17.2,23.8,17.5z"/>
	<path class="st0" d="M35.5,8.2h-2.3c0,0-0.3-0.1-0.3-0.3s0.2-0.3,0.4-0.6l0-3.6c0,0-0.4-0.4-0.4-0.7s0.2-0.3,0.4-0.3
		c0.2,0,0.4,0.1,0.8-0.2c0.4-0.3,0.6-0.5,0.8-0.5c0.2,0,0.4,0.2,0.4,0.3c0,0.1,0,0.4,0,0.4s0.7-0.9,1.7-0.9c1,0,1.7,0.6,1.6,1.5
		c0,0.9-0.6,1.3-1.1,1.3c-0.5,0-1-0.5-1-1c0-0.7,0.1-0.6,0.1-0.8c0-0.2-0.3-0.2-0.4-0.1c-0.1,0.1-0.6,0.2-1,0.9l0,3.6
		c0,0,0.4,0.3,0.4,0.5C35.7,8.1,35.5,8.2,35.5,8.2z"/>
	<path class="st1" d="M30.8,18.2h-2.3c0,0-0.3-0.1-0.3-0.3s0.2-0.3,0.4-0.6l0-3.6c0,0-0.4-0.4-0.4-0.7s0.2-0.3,0.4-0.3
		c0.2,0,0.4,0.1,0.8-0.2c0.4-0.3,0.6-0.5,0.8-0.5c0.2,0,0.4,0.2,0.4,0.3c0,0.1,0,0.4,0,0.4s0.7-0.9,1.7-0.9c1,0,1.7,0.6,1.6,1.5
		s-0.6,1.3-1.1,1.3s-1-0.5-1-1c0-0.7,0.1-0.6,0.1-0.8c0-0.2-0.3-0.2-0.4-0.1s-0.6,0.2-1,0.9l0,3.6c0,0,0.4,0.3,0.4,0.5
		C31,18.2,30.8,18.2,30.8,18.2z"/>
	<path class="st0" d="M52.3,7.3c0-0.1-0.2-0.1-0.3,0c-0.1,0.1-0.3-0.1-0.3-0.1v-3c-0.2-1.4-1.4-2.3-3.1-2.3c0,0-0.1,0-0.1,0
		c0,0,0,0,0,0c0,0-0.1,0-0.1,0c0,0,0,0,0,0C48.2,1.9,48,2,47.8,2c0,0-0.1,0-0.1,0c0,0,0,0-0.1,0c0,0-0.1,0-0.1,0c0,0-0.1,0-0.1,0.1
		c0,0,0,0,0,0c-1.3,0.6-1.9,2.3-2.4,3.5c-0.6,1.5-2.1,1.7-2.1,1.7c-2-0.4-2-2.4-2-2.9c0-0.5,0.1-2,0.9-2c0.8,0,0.7,1.4,0.7,1.7
		S43,5,43.8,5c0.7,0,1-0.8,1-1.1s-0.3-2.1-2.9-2.1c-2.6,0-3,2.5-3,3.1c0,0.6,0.1,1.6,1.1,2.6c1.1,1,2.3,0.8,2.3,0.8
		c1.1,0,1.4-0.2,2.2-0.8C45.3,7,45.8,5.7,46,5.1s0.6-1.2,0.9-1.7s1-0.9,1.8-0.9c0.8,0,0.8,0.7,0.8,0.7l0,0c0,0,0,0,0,0.1
		c0,0.7-1.4,1.3-1.9,1.5C47.1,5,46,5.7,46,6.8c0,1.1,0.9,1.6,1.7,1.6c0.9,0,1.5-0.6,1.5-0.7c0.1-0.2,0-0.3-0.1-0.3
		c-0.1,0-0.3,0.2-0.4,0.2c-0.2,0-0.6-0.4-0.6-1.1c0-0.7,0.4-1.1,0.8-1.4c0.4-0.3,0.8-0.8,0.8-0.8v3c0.2,0.9,1.3,1,1.3,1
		c0.8,0,1.2-0.4,1.3-0.5C52.4,7.6,52.3,7.4,52.3,7.3z"/>
	<path class="st1" d="M13.4,13.2V9.8c0,0,0-0.1-0.2-0.1c-0.1,0-0.4,0.3-0.6,0.4c-0.2,0-0.3,0.1-0.3,0.1c0,0.1,0.1,0.1,0.2,0.2
		c0,0.1,0,0.6,0,0.6s-0.2-0.1-0.6-0.1s-1.3,0.4-1.3,1.3c0,0.9,0.7,1.4,1.3,1.4c0.5,0,0.6-0.2,0.6-0.2s0,0.1,0.1,0.1
		c0.1,0,0.8,0,0.8,0s0.1,0,0.1-0.1C13.5,13.3,13.4,13.3,13.4,13.2z M12.5,13.2c-0.1,0.1-0.2,0.2-0.3,0.2c-0.3,0-0.6-0.5-0.6-1.1
		c0-0.6,0.3-1.1,0.6-1.1c0.1,0,0.2,0.1,0.3,0.2V13.2z"/>
	<path class="st1" d="M16.3,12.8c-0.1,0-0.2,0.2-0.2,0.2c-0.3,0.2-0.7,0.2-0.9,0.2c-0.2,0-0.5-0.2-0.5-0.5c0-0.3,0.5-0.3,1-0.4
		c0.2,0,0.3-0.1,0.4-0.2c0.1-0.1,0.1-0.3,0.1-0.4c-0.3-0.8-1.1-0.8-1.2-0.8c-0.1,0-1.3,0-1.3,1.3c0,1.2,1.1,1.4,1.3,1.5
		c0,0,0.1,0,0.1,0c1-0.1,1.2-0.6,1.3-0.7C16.5,12.8,16.4,12.8,16.3,12.8z M14.7,12.4c-0.1,0,0-0.4,0-0.5c0,0,0,0,0,0
		c0-0.1,0.1-0.7,0.4-0.7c0.3,0,0.4,0.3,0.5,0.5c0,0,0,0.1,0,0.1c0,0.3-0.3,0.3-0.4,0.4C15,12.2,14.8,12.4,14.7,12.4z"/>
</g>
</svg>
