<?xml version="1.0" encoding="utf-8"?>
<!-- Generator: Adobe Illustrator 27.1.1, SVG Export Plug-In . SVG Version: 6.00 Build 0)  -->
<svg version="1.1" id="Layer_2" xmlns="http://www.w3.org/2000/svg" xmlns:xlink="http://www.w3.org/1999/xlink" x="0px" y="0px"
	 viewBox="0 0 52.8 20.3" style="enable-background:new 0 0 52.8 20.3;" xml:space="preserve">
<style type="text/css">
	.st0{fill:#FFFFFF;}
	.st1{fill:#FFD800;}
</style>
<g>
	<path class="st0" d="M10.1,3.1v6.5h-2V6.3l-1,3.2H5.4l-1-3.2v3.2h-2V3.1h2.5L6.2,7l1.4-3.9H10.1z"/>
	<path class="st0" d="M15.2,8.6H13l-0.3,1h-2.1l2.4-6.5h2.3l2.4,6.5h-2.1L15.2,8.6z M14.7,7.1l-0.6-1.8l-0.6,1.8H14.7z"/>
	<path class="st0" d="M20.3,7.9h2.6v1.6h-4.8V8l2.6-3.3h-2.6V3.1h4.8v1.5L20.3,7.9z"/>
	<path class="st0" d="M25.3,9.2c-0.5-0.3-0.9-0.7-1.2-1.2c-0.3-0.5-0.4-1.1-0.4-1.7c0-0.6,0.1-1.2,0.4-1.7c0.3-0.5,0.7-0.9,1.2-1.2
		C25.8,3.1,26.3,3,27,3c0.6,0,1.2,0.1,1.7,0.4c0.5,0.3,0.9,0.7,1.2,1.2c0.3,0.5,0.4,1.1,0.4,1.7c0,0.6-0.1,1.2-0.4,1.7
		c-0.3,0.5-0.7,0.9-1.2,1.2S27.6,9.6,27,9.6C26.3,9.6,25.8,9.5,25.3,9.2z M27.9,7.3c0.2-0.3,0.3-0.6,0.3-1c0-0.4-0.1-0.8-0.3-1.1
		C27.7,5,27.4,4.9,27,4.9c-0.4,0-0.7,0.1-0.9,0.4s-0.3,0.6-0.3,1.1c0,0.4,0.1,0.8,0.3,1s0.5,0.4,0.9,0.4C27.4,7.7,27.7,7.6,27.9,7.3
		z"/>
	<path class="st0" d="M34.2,9.6L33,7.2h0v2.3h-2V3.1h3c0.5,0,1,0.1,1.3,0.3c0.4,0.2,0.6,0.4,0.8,0.8c0.2,0.3,0.3,0.7,0.3,1.1
		c0,0.4-0.1,0.8-0.4,1.1c-0.2,0.3-0.6,0.6-1,0.7l1.4,2.5H34.2z M33,5.9h0.8c0.2,0,0.3,0,0.4-0.1c0.1-0.1,0.1-0.2,0.1-0.4
		c0-0.2-0.1-0.3-0.2-0.4c-0.1-0.1-0.2-0.1-0.4-0.1H33V5.9z"/>
	<path class="st0" d="M37.3,4.6c0.3-0.5,0.6-0.9,1.1-1.2c0.5-0.3,1-0.4,1.7-0.4c0.6,0,1.1,0.1,1.5,0.3c0.4,0.2,0.8,0.5,1.1,0.9
		c0.3,0.4,0.5,0.8,0.6,1.3h-2.1c-0.1-0.2-0.2-0.4-0.4-0.5c-0.2-0.1-0.4-0.2-0.6-0.2c-0.3,0-0.6,0.1-0.8,0.4c-0.2,0.3-0.3,0.6-0.3,1
		s0.1,0.8,0.3,1c0.2,0.3,0.5,0.4,0.8,0.4c0.2,0,0.4-0.1,0.6-0.2c0.2-0.1,0.3-0.3,0.4-0.5h2.1c-0.1,0.5-0.3,1-0.6,1.3
		c-0.3,0.4-0.6,0.7-1.1,0.9c-0.4,0.2-0.9,0.3-1.5,0.3c-0.7,0-1.2-0.1-1.7-0.4c-0.5-0.3-0.8-0.7-1.1-1.2C37,7.5,36.9,7,36.9,6.3
		S37,5.1,37.3,4.6z"/>
	<path class="st0" d="M48.1,8.6H46l-0.3,1h-2.1l2.4-6.5h2.3l2.4,6.5h-2.1L48.1,8.6z M47.6,7.1L47,5.3l-0.6,1.8H47.6z"/>
	<path class="st1" d="M15,11.9c0.5,0.3,0.9,0.7,1.2,1.1s0.4,1,0.4,1.7c0,0.6-0.1,1.2-0.4,1.7c-0.3,0.5-0.7,0.9-1.2,1.2
		c-0.5,0.3-1.1,0.4-1.8,0.4h-2.7v-6.5h2.7C13.9,11.5,14.5,11.7,15,11.9z M14.1,15.8c0.3-0.2,0.4-0.6,0.4-1.1s-0.1-0.8-0.4-1.1
		c-0.3-0.2-0.6-0.4-1.1-0.4h-0.5v2.9H13C13.5,16.2,13.8,16.1,14.1,15.8z"/>
	<path class="st1" d="M19.3,13.2v0.8h2v1.5h-2v0.9h2.3V18h-4.3v-6.5h4.3v1.6H19.3z"/>
	<path class="st1" d="M25.4,17.6c-0.5-0.3-0.9-0.7-1.2-1.2c-0.3-0.5-0.4-1.1-0.4-1.7c0-0.6,0.1-1.2,0.4-1.7c0.3-0.5,0.7-0.9,1.2-1.2
		c0.5-0.3,1.1-0.4,1.7-0.4c0.6,0,1.2,0.1,1.7,0.4c0.5,0.3,0.9,0.7,1.2,1.2c0.3,0.5,0.4,1.1,0.4,1.7c0,0.6-0.1,1.2-0.4,1.7
		c-0.3,0.5-0.7,0.9-1.2,1.2c-0.5,0.3-1.1,0.4-1.7,0.4C26.5,18.1,25.9,17.9,25.4,17.6z M28,15.8c0.2-0.3,0.3-0.6,0.3-1
		c0-0.4-0.1-0.8-0.3-1.1c-0.2-0.3-0.5-0.4-0.9-0.4c-0.4,0-0.7,0.1-0.9,0.4c-0.2,0.3-0.3,0.6-0.3,1.1c0,0.4,0.1,0.8,0.3,1
		c0.2,0.3,0.5,0.4,0.9,0.4C27.5,16.2,27.8,16,28,15.8z"/>
	<path class="st1" d="M34.3,18l-1.2-2.3h0V18h-2v-6.5h3c0.5,0,1,0.1,1.3,0.3c0.4,0.2,0.6,0.4,0.8,0.8s0.3,0.7,0.3,1.1
		c0,0.4-0.1,0.8-0.4,1.1s-0.6,0.6-1,0.7l1.4,2.5H34.3z M33.1,14.3h0.8c0.2,0,0.3,0,0.4-0.1c0.1-0.1,0.1-0.2,0.1-0.4
		c0-0.2-0.1-0.3-0.2-0.4c-0.1-0.1-0.2-0.1-0.4-0.1h-0.8V14.3z"/>
	<path class="st1" d="M38.7,17.6c-0.5-0.3-0.9-0.7-1.2-1.2c-0.3-0.5-0.4-1.1-0.4-1.7c0-0.6,0.1-1.2,0.4-1.7c0.3-0.5,0.7-0.9,1.2-1.2
		c0.5-0.3,1.1-0.4,1.7-0.4s1.2,0.1,1.7,0.4c0.5,0.3,0.9,0.7,1.2,1.2c0.3,0.5,0.4,1.1,0.4,1.7c0,0.6-0.1,1.2-0.4,1.7
		c-0.3,0.5-0.7,0.9-1.2,1.2c-0.5,0.3-1.1,0.4-1.7,0.4C39.7,18.1,39.2,17.9,38.7,17.6z M41.3,15.8c0.2-0.3,0.3-0.6,0.3-1
		c0-0.4-0.1-0.8-0.3-1.1c-0.2-0.3-0.5-0.4-0.9-0.4c-0.4,0-0.7,0.1-0.9,0.4c-0.2,0.3-0.3,0.6-0.3,1.1c0,0.4,0.1,0.8,0.3,1
		c0.2,0.3,0.5,0.4,0.9,0.4C40.8,16.2,41.1,16,41.3,15.8z"/>
</g>
</svg>
