<?xml version="1.0" encoding="utf-8"?>
<!-- Generator: Adobe Illustrator 27.1.1, SVG Export Plug-In . SVG Version: 6.00 Build 0)  -->
<svg version="1.1" id="Layer_2" xmlns="http://www.w3.org/2000/svg" xmlns:xlink="http://www.w3.org/1999/xlink" x="0px" y="0px"
	 viewBox="0 0 52.8 20.3" style="enable-background:new 0 0 52.8 20.3;" xml:space="preserve">
<style type="text/css">
	.st0{fill:#FFFFFF;}
	.st1{fill:#FFD800;}
</style>
<g>
	<path class="st0" d="M-7.6-27.4v6.5h-2v-3.3l-1,3.2h-1.7l-1-3.2v3.2h-2v-6.4h2.5l1.3,3.9l1.4-3.9H-7.6z"/>
	<path class="st0" d="M-2.5-21.9h-2.2l-0.3,1h-2.1l2.4-6.5h2.3L0-20.9h-2.1L-2.5-21.9z M-3-23.4l-0.6-1.8l-0.6,1.8
		C-4.2-23.4-3-23.4-3-23.4z"/>
	<path class="st0" d="M2.6-22.6h2.6v1.6H0.4v-1.5L3-25.8H0.4v-1.6h4.8v1.5L2.6-22.6z"/>
	<path class="st0" d="M7.6-21.3c-0.5-0.3-0.9-0.7-1.2-1.2C6.1-23,6-23.6,6-24.2c0-0.6,0.1-1.2,0.4-1.7s0.7-0.9,1.2-1.2
		c0.5-0.3,1-0.4,1.7-0.4c0.6,0,1.2,0.1,1.7,0.4s0.9,0.7,1.2,1.2c0.3,0.5,0.4,1.1,0.4,1.7c0,0.6-0.1,1.2-0.4,1.7s-0.7,0.9-1.2,1.2
		c-0.5,0.3-1.1,0.4-1.7,0.4C8.6-20.9,8.1-21,7.6-21.3z M10.2-23.2c0.2-0.3,0.3-0.6,0.3-1c0-0.4-0.1-0.8-0.3-1.1
		c-0.2-0.2-0.5-0.3-0.9-0.3s-0.7,0.1-0.9,0.4c-0.2,0.3-0.3,0.6-0.3,1.1c0,0.4,0.1,0.8,0.3,1c0.2,0.2,0.5,0.4,0.9,0.4
		C9.7-22.8,10-22.9,10.2-23.2z"/>
	<path class="st0" d="M16.5-20.9l-1.2-2.4l0,0v2.3h-2v-6.4h3c0.5,0,1,0.1,1.3,0.3c0.4,0.2,0.6,0.4,0.8,0.8c0.2,0.3,0.3,0.7,0.3,1.1
		s-0.1,0.8-0.4,1.1c-0.2,0.3-0.6,0.6-1,0.7l1.4,2.5C18.7-20.9,16.5-20.9,16.5-20.9z M15.3-24.6h0.8c0.2,0,0.3,0,0.4-0.1
		c0.1-0.1,0.1-0.2,0.1-0.4c0-0.2-0.1-0.3-0.2-0.4c-0.1-0.1-0.2-0.1-0.4-0.1h-0.7V-24.6z"/>
	<path class="st0" d="M19.6-25.9c0.3-0.5,0.6-0.9,1.1-1.2s1-0.4,1.7-0.4c0.6,0,1.1,0.1,1.5,0.3s0.8,0.5,1.1,0.9
		c0.3,0.4,0.5,0.8,0.6,1.3h-2.1c-0.1-0.2-0.2-0.4-0.4-0.5s-0.4-0.2-0.6-0.2c-0.3,0-0.6,0.1-0.8,0.4c-0.2,0.3-0.3,0.6-0.3,1
		c0,0.4,0.1,0.8,0.3,1c0.2,0.3,0.5,0.4,0.8,0.4c0.2,0,0.4-0.1,0.6-0.2c0.2-0.1,0.3-0.3,0.4-0.5h2.1c-0.1,0.5-0.3,1-0.6,1.3
		c-0.3,0.4-0.6,0.7-1.1,0.9c-0.4,0.2-0.9,0.3-1.5,0.3c-0.7,0-1.2-0.1-1.7-0.4s-0.8-0.7-1.1-1.2c-0.3-0.3-0.4-0.8-0.4-1.5
		C19.2-24.9,19.3-25.4,19.6-25.9z"/>
	<path class="st0" d="M30.4-21.9h-2.1l-0.3,1h-2.1l2.4-6.5h2.3l2.4,6.5h-2.1L30.4-21.9z M29.9-23.4l-0.6-1.8l-0.6,1.8
		C28.7-23.4,29.9-23.4,29.9-23.4z"/>
	<path class="st1" d="M-2.7-18.6c0.5,0.3,0.9,0.7,1.2,1.1c0.3,0.4,0.4,1,0.4,1.7c0,0.6-0.1,1.2-0.4,1.7c-0.3,0.5-0.7,0.9-1.2,1.2
		c-0.5,0.3-1.1,0.4-1.8,0.4h-2.7V-19h2.7C-3.8-19-3.2-18.8-2.7-18.6z M-3.6-14.7c0.3-0.2,0.4-0.6,0.4-1.1c0-0.5-0.1-0.8-0.4-1.1
		c-0.3-0.2-0.6-0.4-1.1-0.4h-0.5v2.9h0.5C-4.2-14.3-3.9-14.4-3.6-14.7z"/>
	<path class="st1" d="M1.6-17.3v0.8h2v1.5h-2v0.9h2.3v1.6h-4.3V-19h4.3v1.6L1.6-17.3L1.6-17.3z"/>
	<path class="st1" d="M7.7-12.9c-0.5-0.3-0.9-0.7-1.2-1.2c-0.3-0.5-0.4-1.1-0.4-1.7c0-0.6,0.1-1.2,0.4-1.7s0.7-0.9,1.2-1.2
		c0.5-0.3,1.1-0.4,1.7-0.4s1.2,0.1,1.7,0.4c0.5,0.3,0.9,0.7,1.2,1.2c0.3,0.5,0.4,1.1,0.4,1.7c0,0.6-0.1,1.2-0.4,1.7
		s-0.7,0.9-1.2,1.2c-0.5,0.3-1.1,0.4-1.7,0.4C8.8-12.4,8.2-12.6,7.7-12.9z M10.3-14.7c0.2-0.3,0.3-0.6,0.3-1c0-0.4-0.1-0.8-0.3-1.1
		c-0.2-0.3-0.5-0.4-0.9-0.4s-0.7,0.1-0.9,0.4c-0.2,0.3-0.3,0.6-0.3,1.1c0,0.4,0.1,0.8,0.3,1c0.2,0.3,0.5,0.4,0.9,0.4
		S10.1-14.5,10.3-14.7z"/>
	<path class="st1" d="M16.6-12.5l-1.2-2.3l0,0v2.3h-2V-19h3c0.5,0,1,0.1,1.3,0.3c0.4,0.2,0.6,0.4,0.8,0.8c0.2,0.4,0.3,0.7,0.3,1.1
		c0,0.4-0.1,0.8-0.4,1.1c-0.3,0.3-0.6,0.6-1,0.7l1.4,2.5H16.6z M15.4-16.2h0.8c0.2,0,0.3,0,0.4-0.1c0.1-0.1,0.1-0.2,0.1-0.4
		c0-0.2-0.1-0.3-0.2-0.4c-0.1-0.1-0.2-0.1-0.4-0.1h-0.8v1H15.4z"/>
	<path class="st1" d="M21-12.9c-0.5-0.3-0.9-0.7-1.2-1.2s-0.4-1.1-0.4-1.7c0-0.6,0.1-1.2,0.4-1.7c0.3-0.5,0.7-0.9,1.2-1.2
		c0.5-0.3,1.1-0.4,1.7-0.4s1.2,0.1,1.7,0.4c0.5,0.3,0.9,0.7,1.2,1.2s0.4,1.1,0.4,1.7c0,0.6-0.1,1.2-0.4,1.7
		c-0.3,0.5-0.7,0.9-1.2,1.2c-0.5,0.3-1.1,0.4-1.7,0.4C22-12.4,21.5-12.6,21-12.9z M23.6-14.7c0.2-0.3,0.3-0.6,0.3-1
		c0-0.4-0.1-0.8-0.3-1.1c-0.2-0.3-0.5-0.4-0.9-0.4s-0.7,0.1-0.9,0.4c-0.2,0.3-0.3,0.6-0.3,1.1c0,0.4,0.1,0.8,0.3,1
		c0.2,0.3,0.5,0.4,0.9,0.4S23.4-14.5,23.6-14.7z"/>
</g>
<g>
	<defs>
		<rect id="SVGID_1_" x="7.6" y="0.3" width="37.6" height="19.8"/>
	</defs>
	<clipPath id="SVGID_00000148650079273931997400000001563908952936552379_">
		<use xlink:href="#SVGID_1_"  style="overflow:visible;"/>
	</clipPath>
	
		<g transform="matrix(1 0 0 1 -2.384186e-07 0)" style="clip-path:url(#SVGID_00000148650079273931997400000001563908952936552379_);">
		
			<image style="overflow:visible;" width="3500" height="3500" xlink:href="../../../../../../03 - Social Media Casagri/Mazorca de Oro/Mazorca de Oro png.png"  transform="matrix(1.250137e-02 0 0 1.250137e-02 3.8358 -12.0284)">
		</image>
	</g>
</g>
</svg>
